<svg xmlns="http://www.w3.org/2000/svg" xmlns:xlink="http://www.w3.org/1999/xlink" width="500" zoomAndPan="magnify" viewBox="0 0 375 374.999991" height="500" preserveAspectRatio="xMidYMid meet" version="1.0"><defs><clipPath id="2575d9ee94"><path d="M 205.148438 131.304688 L 340.449219 131.304688 L 340.449219 320.03125 L 205.148438 320.03125 Z M 205.148438 131.304688 " clip-rule="nonzero"/></clipPath><clipPath id="c21c32ad1e"><path d="M 34.449219 155 L 239 155 L 239 320.417969 L 34.449219 320.417969 Z M 34.449219 155 " clip-rule="nonzero"/></clipPath><clipPath id="ef281ce981"><path d="M 78 54.917969 L 283 54.917969 L 283 220 L 78 220 Z M 78 54.917969 " clip-rule="nonzero"/></clipPath></defs><g clip-path="url(#2575d9ee94)"><path fill="#004aad" d="M 286.105469 131.535156 L 205.355469 131.535156 L 225.773438 166.898438 L 265.691406 166.898438 L 299.683594 225.785156 L 265.691406 284.664062 L 225.773438 284.664062 L 205.355469 320.03125 L 286.105469 320.03125 L 340.519531 225.785156 L 286.105469 131.535156 " fill-opacity="1" fill-rule="nonzero"/></g><path fill="#004aad" d="M 241.441406 173.527344 L 221.484375 208.101562 L 181.5625 208.101562 L 171.355469 225.785156 L 181.5625 243.464844 L 241.898438 243.464844 L 272.070312 191.210938 L 261.863281 173.527344 L 241.441406 173.527344 " fill-opacity="1" fill-rule="nonzero"/><g clip-path="url(#c21c32ad1e)"><path fill="#004aad" d="M 238.074219 250.097656 L 197.234375 250.097656 L 177.277344 284.664062 L 109.28125 284.664062 L 75.285156 225.785156 L 95.246094 191.210938 L 74.828125 155.84375 L 34.449219 225.785156 L 88.867188 320.03125 L 197.695312 320.03125 L 238.074219 250.097656 " fill-opacity="1" fill-rule="nonzero"/></g><path fill="#004aad" d="M 137.355469 131.535156 L 127.148438 149.214844 L 137.355469 166.898438 L 177.277344 166.898438 L 197.234375 201.472656 L 217.65625 201.472656 L 227.863281 183.789062 L 197.695312 131.535156 L 137.355469 131.535156 " fill-opacity="1" fill-rule="nonzero"/><path fill="#004aad" d="M 183.65625 260.359375 L 163.699219 225.785156 L 183.65625 191.210938 L 173.449219 173.527344 L 153.027344 173.527344 L 122.859375 225.785156 L 153.027344 278.035156 L 173.449219 278.035156 L 183.65625 260.359375 " fill-opacity="1" fill-rule="nonzero"/><g clip-path="url(#ef281ce981)"><path fill="#004aad" d="M 119.03125 219.152344 L 139.449219 183.789062 L 119.492188 149.214844 L 153.488281 90.332031 L 221.484375 90.332031 L 241.441406 124.902344 L 282.277344 124.902344 L 241.898438 54.96875 L 133.074219 54.96875 L 78.652344 149.214844 L 119.03125 219.152344 " fill-opacity="1" fill-rule="nonzero"/></g></svg>