<svg width="200" height="200" viewBox="0 0 200 200" fill="none" xmlns="http://www.w3.org/2000/svg">
<path fill-rule="evenodd" clip-rule="evenodd" d="M83.4891 12.213C101.069 11.4291 110.427 17.0971 119.003 23.1318C108.131 35.4814 106.959 52.1942 111.424 64.746C121.287 92.47 157.61 102.724 180.55 80.801C187.065 74.5742 190.599 66.5616 192.119 61.0818C195.74 71.3177 195.98 82.4855 192.743 92.92C191.22 97.997 189.045 102.185 186.878 106.354C184.552 110.832 182.237 115.288 180.754 120.801C178.964 127.456 180.361 133.332 181.829 139.508C183.906 148.242 186.125 157.574 179.673 170.552C174.098 181.768 160.294 186.896 147.856 187.228C136.041 187.543 124.14 181.299 115.074 176.542C111.916 174.885 109.103 173.409 106.756 172.453C95.8686 168.018 88.6622 173.936 80.9346 180.282L80.934 180.283H80.9334L80.9318 180.285H80.9308L80.9304 180.286H80.9295L80.9291 180.287C79.8078 181.208 78.6752 182.138 77.5191 183.046C71.1471 188.053 36.1941 207.311 13.5691 170.37C8.32411 161.816 -0.618883 139.375 9.86911 117.27C14.8714 106.728 20.9575 101.539 26.3703 96.9242C32.6926 91.5342 38.0964 86.9273 39.7821 75.487C40.4277 71.1044 40.2516 66.6646 40.0723 62.145C39.7165 53.1737 39.3483 43.8883 45.3691 34.113C49.4363 27.6131 55.0417 22.215 61.6902 18.3955C68.3386 14.576 75.8253 12.4526 83.4891 12.213ZM64.8644 80.4622C66.5167 79.6663 69.1197 78.4126 69.8231 78.121C69.9011 78.0969 69.9849 78.0988 70.0618 78.1264C70.1386 78.154 70.2045 78.2058 70.2494 78.274C70.2942 78.3422 70.3158 78.4232 70.3107 78.5047C70.3056 78.5862 70.2741 78.6639 70.2211 78.726C69.7921 79.156 65.2021 81.717 64.5021 82.104C64.6717 82.3197 65.2048 82.6898 65.8087 83.109C66.3192 83.4634 66.8803 83.853 67.3151 84.214C68.4592 85.1605 68.4718 85.308 68.4961 85.5944C68.4982 85.6181 68.5003 85.6428 68.5031 85.669C68.5076 85.7053 68.5042 85.7421 68.4931 85.7769C68.4819 85.8118 68.4633 85.8438 68.4386 85.8707C68.4139 85.8976 68.3836 85.9188 68.3498 85.9329C68.316 85.9469 68.2796 85.9534 68.2431 85.952C68.1196 85.9462 67.9977 85.9209 67.8821 85.877C67.0009 85.3601 66.1794 84.7836 65.4866 84.2974C64.6031 83.6774 63.9288 83.2041 63.6071 83.189C63.3972 84.8187 63.2721 86.4583 63.2321 88.101C63.1931 88.732 63.1571 89.127 62.9171 89.301C62.8137 89.3876 62.6856 89.4394 62.5511 89.449C62.1001 89.449 62.0721 88.819 62.0611 88.37C62.0231 86.811 62.2381 84.003 62.2971 83.27C62.1461 83.336 61.9031 83.457 61.5031 83.67C60.0242 84.4526 59.1978 84.9341 58.7086 85.2192L58.708 85.2195C58.0177 85.6218 57.9992 85.6326 57.7651 85.546C57.6875 85.5201 57.6193 85.4719 57.5688 85.4076C57.5183 85.3432 57.4878 85.2655 57.4811 85.184C57.4163 84.4022 59.6056 83.2365 61.1202 82.4302C61.3819 82.2909 61.6238 82.162 61.8301 82.048L61.0991 81.5359C57.6739 79.1366 57.2114 78.8127 57.2292 78.5177C57.232 78.4717 57.2465 78.4264 57.2632 78.374L57.2651 78.368C57.5984 77.3215 59.4482 78.7068 60.959 79.8381C61.5832 80.3056 62.1496 80.7298 62.5271 80.921C62.5211 80.574 62.5661 79.586 62.8351 76.6C62.9733 75.0645 62.9562 73.8861 62.9436 73.0156C62.9236 71.6309 62.9148 71.0252 63.5601 71C63.7042 71.0116 63.8413 71.0672 63.9527 71.1593C64.0642 71.2515 64.1446 71.3756 64.1831 71.515C64.2173 74.6755 64.0838 77.8356 63.7831 80.982C64.0317 80.8632 64.4057 80.6831 64.8494 80.4694L64.8565 80.466L64.8626 80.463L64.8644 80.4622ZM171.53 112.318C171.587 112.256 171.621 112.177 171.628 112.093C171.635 112.009 171.614 111.926 171.568 111.855C171.523 111.784 171.455 111.731 171.375 111.703C171.296 111.675 171.21 111.675 171.13 111.701C170.334 112.03 167.129 113.578 165.595 114.318L165.593 114.319L165.09 114.562C165.391 111.415 165.524 108.255 165.49 105.094C165.451 104.955 165.37 104.831 165.259 104.739C165.148 104.647 165.011 104.592 164.867 104.58C164.222 104.605 164.231 105.211 164.252 106.593C164.264 107.464 164.282 108.643 164.143 110.18C163.874 113.164 163.83 114.153 163.836 114.5C163.458 114.31 162.89 113.884 162.264 113.415C160.755 112.284 158.907 110.899 158.573 111.948L158.57 111.956C158.554 112.008 158.539 112.053 158.537 112.099C158.518 112.394 158.983 112.719 162.457 115.15L163.138 115.627C162.95 115.731 162.728 115.848 162.485 115.977C160.99 116.771 158.723 117.975 158.789 118.764C158.805 118.85 158.844 118.931 158.902 118.997C158.959 119.063 159.034 119.112 159.117 119.14C159.2 119.168 159.289 119.173 159.375 119.154C159.461 119.136 159.54 119.095 159.605 119.036C159.856 118.836 163.205 117.022 163.705 116.783C163.701 116.831 163.696 116.889 163.69 116.954L163.689 116.961C163.574 118.248 163.189 122.539 164.126 122.539C164.394 122.539 164.406 122.377 164.491 121.2V121.199V121.198H164.492C164.539 120.544 164.609 119.579 164.758 118.156C164.803 117.729 164.846 116.723 164.846 116.723C165.025 116.812 165.21 116.935 165.487 117.118C165.853 117.36 166.377 117.708 167.257 118.223C167.433 118.288 167.687 118.354 167.814 118.217C167.893 118.132 167.885 118.06 167.876 117.979C167.874 117.964 167.872 117.949 167.871 117.934C167.846 117.595 167.739 117.427 166.69 116.558C166.348 116.275 166.103 116.088 165.897 115.93C165.818 115.87 165.744 115.813 165.673 115.758C166.126 115.529 171.09 112.758 171.53 112.318ZM86.7688 30.4178C86.7868 30.4537 86.7975 30.4929 86.8001 30.5329C86.8151 31.1519 81.7001 36.2999 79.5161 38.2089C79.7886 38.5404 81.4723 40.0664 82.9411 41.3974L82.9489 41.4045C83.1968 41.6292 83.4385 41.8482 83.6661 42.0549C85.1411 43.3929 85.1121 43.5149 85.0721 43.6819C85.0589 43.7286 85.0344 43.7713 85.0007 43.8062C84.9671 43.8411 84.9253 43.8671 84.8791 43.8819C84.3221 44.0389 79.9101 40.5219 78.5791 39.1819C78.3559 40.1616 78.01 43.846 77.7772 46.326C77.6533 47.6457 77.5614 48.6247 77.5371 48.673C77.52 48.7076 77.4952 48.7377 77.4644 48.7611C77.4337 48.7844 77.398 48.8003 77.3601 48.8075C77.3221 48.8147 77.2831 48.813 77.2459 48.8024C77.2088 48.7919 77.1746 48.7729 77.1461 48.7469C76.3731 48.0467 76.7638 44.4776 77.0428 41.9297L77.0431 41.9271C77.1205 41.2197 77.1893 40.5912 77.2221 40.1249C77.0166 40.2796 76.7184 40.5247 76.1769 40.9698C75.9094 41.1896 75.5825 41.4583 75.1781 41.7889C74.3611 42.4603 74.3151 42.5583 74.2003 42.8031C74.1756 42.8558 74.1476 42.9154 74.1081 42.9889C73.6701 43.8279 72.6291 42.985 73.1081 41.997C73.4009 41.3942 73.5567 41.2667 75.7571 39.4657C76.1341 39.1572 76.5711 38.7995 77.0791 38.3819C77.2041 38.2789 77.3241 38.1799 77.3951 38.1139C77.2901 38.0229 72.0241 33.0479 71.9901 32.9059C71.8711 32.4619 72.0251 32.2799 72.1711 32.2059C73.0481 31.7579 77.0261 35.799 77.6871 36.525C77.6961 36.4249 77.7041 36.3029 77.7111 36.1889C77.7355 35.7916 77.8211 35.0104 77.9379 33.9436L77.9382 33.941C78.0557 32.8682 78.2048 31.5069 78.3551 29.9569L78.3554 29.9544C78.5741 27.7119 78.5873 27.5769 79.0621 27.5019C79.8565 27.3712 79.5256 30.4462 79.1308 34.1155C79.0305 35.0469 78.9262 36.0167 78.8351 36.9819C82.353 34.0507 84.1538 32.2639 85.1556 31.2698C86.1706 30.2627 86.3655 30.0693 86.6951 30.3239C86.7257 30.35 86.7508 30.3819 86.7688 30.4178ZM126.411 120.654C125.314 121.247 125.256 121.272 125.058 121.355C124.919 121.414 124.71 121.503 124.02 121.84C123.603 122.044 123.06 122.323 122.576 122.57C122.034 122.848 121.567 123.087 121.438 123.14C121.47 122.606 121.645 119.263 121.56 118.967C121.615 118.741 121.647 118.51 121.653 118.277C121.656 118.115 121.597 117.957 121.488 117.837C121.379 117.717 121.228 117.643 121.066 117.63C120.342 117.583 120.314 118.43 120.317 119.152C120.321 120.03 120.285 120.535 120.252 121.012C120.219 121.479 120.188 121.918 120.198 122.652C120.147 122.625 120.089 122.594 120.025 122.56L119.922 122.505L119.92 122.504C118.901 121.956 116.686 120.767 115.964 121.223C115.889 121.279 115.83 121.355 115.795 121.442C115.759 121.529 115.749 121.624 115.764 121.717C115.779 121.81 115.819 121.897 115.88 121.968C115.94 122.04 116.02 122.093 116.109 122.123C118.49 123.225 119.146 123.542 119.477 123.702C119.669 123.795 119.751 123.835 119.999 123.945C119.866 124.033 119.715 124.126 119.532 124.239C119.128 124.488 118.565 124.834 117.689 125.445C116.613 126.201 117.289 127.506 117.868 126.972C118.566 126.376 119.33 125.863 120.146 125.443C120.179 129.092 120.541 129.418 120.68 129.543C120.716 129.578 120.758 129.606 120.805 129.624C120.852 129.642 120.902 129.65 120.952 129.647C121.003 129.645 121.052 129.632 121.097 129.61C121.142 129.588 121.182 129.556 121.214 129.518C121.339 129.36 121.315 129.165 121.242 128.577C121.233 128.506 121.224 128.43 121.214 128.348C121.251 128.207 121.279 127.419 121.307 126.611C121.339 125.704 121.372 124.771 121.42 124.701C121.475 124.706 121.528 124.723 121.575 124.752C122.5 125.208 123.2 125.56 123.734 125.829C125.087 126.509 125.364 126.648 125.488 126.563C125.52 126.542 125.541 126.505 125.569 126.458L125.585 126.431C125.998 125.708 124.192 124.754 123.089 124.17C122.939 124.091 122.802 124.018 122.685 123.954C124.032 123.228 125.336 122.427 126.593 121.554C127.33 120.926 126.736 120.476 126.411 120.654ZM153.032 149.384C153.05 149.42 153.061 149.46 153.063 149.5C153.084 150.119 147.974 155.261 145.781 157.178C146.042 157.491 147.671 158.968 149.248 160.397L149.249 160.398L149.252 160.401C149.48 160.608 149.707 160.814 149.929 161.015C151.403 162.353 151.374 162.474 151.334 162.642C151.321 162.689 151.297 162.732 151.263 162.766C151.229 162.801 151.187 162.827 151.141 162.842C150.589 162.989 146.173 159.483 144.841 158.142C144.614 159.13 144.259 162.912 144.026 165.394V165.396C143.907 166.663 143.82 167.59 143.798 167.634C143.781 167.668 143.756 167.698 143.725 167.721C143.694 167.744 143.659 167.76 143.621 167.767C142.524 167.938 143.058 163.067 143.347 160.426L143.348 160.425V160.419C143.411 159.842 143.463 159.372 143.483 159.085C143.257 159.256 142.867 159.576 142.325 160.022L142.323 160.024L141.958 160.324C141.796 160.457 141.623 160.599 141.439 160.749C140.621 161.418 140.577 161.512 140.46 161.762C140.436 161.814 140.408 161.872 140.37 161.944C139.931 162.783 138.889 161.941 139.37 160.952C139.671 160.334 139.708 160.303 142.428 158.083L142.845 157.743L143.37 157.314L143.399 157.29C143.46 157.24 143.52 157.191 143.57 157.148C143.604 157.119 143.634 157.093 143.659 157.07C143.559 156.99 138.287 152.004 138.253 151.86C138.134 151.417 138.288 151.234 138.434 151.16C139.314 150.713 143.27 154.743 143.95 155.48C144.084 153.944 144.173 153.133 144.282 152.13C144.369 151.332 144.47 150.413 144.617 148.91C144.837 146.666 144.851 146.532 145.325 146.456C146.12 146.332 145.789 149.408 145.394 153.074C145.294 154.005 145.189 154.974 145.098 155.938C145.159 155.877 145.348 155.718 145.643 155.471C146.675 154.606 148.998 152.658 151.641 150.023L151.642 150.022C152.398 149.267 152.627 149.038 152.957 149.291C152.988 149.317 153.014 149.348 153.032 149.384ZM45.4541 125.4C45.6835 125.385 45.92 125.267 46.2378 125.109C47.2403 124.61 49.0527 123.709 54.0091 124.34C54.4509 124.357 54.7631 124.415 55.0083 124.461C55.4996 124.553 55.7218 124.594 56.1781 124.153C56.8141 123.553 61.2011 117.753 61.2631 117.664C61.632 117.154 62.2162 116.507 62.8075 115.851C64.1285 114.386 65.4849 112.883 64.5551 112.792C62.756 112.486 60.9182 112.486 59.1191 112.792C57.6536 113.042 56.2218 113.461 54.8521 114.039C51.6196 115.694 48.8521 118.131 46.8011 121.128C46.1011 122.243 45.4951 123.409 44.9111 124.588C44.8653 124.677 44.8442 124.776 44.8498 124.876C44.8554 124.975 44.8876 125.071 44.9431 125.154C44.9985 125.237 45.0752 125.304 45.165 125.347C45.2549 125.39 45.3547 125.408 45.4541 125.4ZM63.6703 141.092C63.761 141.142 63.8348 141.217 63.8821 141.309C64.1647 141.933 62.9968 143.37 57.5066 150.128C53.7878 154.705 48.0856 161.724 39.5081 172.583C38.9447 173.296 38.4984 173.871 38.1407 174.331L38.1402 174.332C36.847 175.998 36.7129 176.171 36.3941 175.974C36.2921 175.908 36.1881 175.774 36.2781 175.474C37.1851 172.501 62.4381 141.031 63.3731 141.031C63.476 141.021 63.5795 141.042 63.6703 141.092ZM45.0541 172.418C44.0871 173.601 45.0901 174.656 45.7821 173.644C46.2331 172.834 49.4181 171.072 52.9951 171.199C53.4271 171.215 53.5381 171.368 53.3641 171.821C52.913 172.986 50.458 174.504 49.4601 175.121C49.2391 175.258 49.0895 175.35 49.0491 175.385C48.869 175.509 48.7226 175.676 48.6232 175.87C48.5239 176.065 48.4747 176.281 48.4802 176.5C48.4856 176.718 48.5456 176.932 48.6545 177.122C48.7635 177.311 48.918 177.47 49.1041 177.585C49.3338 177.754 49.5676 177.917 49.792 178.074C50.5934 178.635 51.2763 179.113 51.2341 179.432C51.1521 180.051 48.8871 180.992 44.7341 182.514C44.0471 182.766 44.1501 183.614 45.7791 183.614C47.5641 183.489 49.2915 182.93 50.8111 181.985C55.1586 179.569 52.2674 177.783 50.7407 176.84C50.4245 176.644 50.1668 176.485 50.0441 176.364C50.0737 176.343 50.1615 176.296 50.2941 176.225C51.2111 175.732 54.2696 174.088 54.9991 172.056C56.4731 167.949 47.5001 169.43 45.0541 172.418ZM29.3541 161.786C30.5341 157.181 34.1141 153.893 36.1541 158.041C37.5761 160.93 36.4711 164.518 35.2311 164.413C35.1463 164.411 35.0633 164.388 34.9888 164.348C34.9143 164.307 34.8503 164.25 34.8021 164.18C34.7391 164.017 34.712 163.842 34.7227 163.667C34.7334 163.493 34.7816 163.322 34.8641 163.168C35.7661 160.505 34.4571 157.063 33.2441 158.139C31.6361 159.568 30.3681 162.914 30.9361 164.207C31.1781 164.76 31.1681 165.579 30.5891 165.76C29.8191 166.003 29.5601 165.4 29.3341 164.87C28.6681 163.327 27.3821 163.137 26.6341 163.77C25.7503 164.684 25.2216 165.884 25.1431 167.153C25.1431 167.614 25.4756 167.897 25.759 168.138C26.036 168.374 26.2661 168.57 26.0931 168.853C26.0347 168.942 25.9478 169.009 25.8466 169.042C25.7454 169.075 25.6359 169.073 25.5361 169.036C24.9786 168.914 24.4837 168.595 24.1421 168.138C23.8005 167.681 23.635 167.116 23.6761 166.547C23.6557 165.885 23.7928 165.227 24.0761 164.628C24.7191 162.908 25.5651 162.041 26.9051 161.728C27.6819 161.561 28.4933 161.708 29.1621 162.137L29.2541 162.179C29.2806 162.046 29.314 161.915 29.3541 161.786ZM71.2451 148.1C70.7278 146.846 69.887 147.681 68.6628 148.897C68.169 149.388 67.6127 149.941 66.9901 150.443C64.9411 152.092 58.8021 158.036 56.9141 159.869C50.4611 166.131 50.5901 166.297 50.7861 166.549C50.8103 166.583 50.8423 166.61 50.8794 166.629C50.9164 166.648 50.9575 166.658 50.9991 166.657C52.1281 166.657 70.5731 149.336 71.2241 148.331C71.2461 148.297 71.2595 148.258 71.2631 148.218C71.2668 148.178 71.2606 148.137 71.2451 148.1ZM54.8078 140.546L54.807 140.547C50.7427 146.348 44.5254 155.221 43.5921 156.923C43.3381 157.393 42.6901 157.265 42.8551 156.577C43.3761 154.431 55.5361 136.366 57.3871 134.893C57.4724 134.795 57.5889 134.729 57.7169 134.706C57.845 134.684 57.9769 134.706 58.0907 134.769C58.2045 134.832 58.2932 134.932 58.3421 135.052C58.3909 135.173 58.3969 135.307 58.3591 135.431C58.3331 135.514 56.8395 137.646 54.8078 140.546ZM107.2 107.314C105.281 106.533 103.452 105.547 101.745 104.374C98.7859 102.224 96.2139 99.5864 94.1391 96.5741C93.8121 96.0374 93.5573 95.604 93.3538 95.2577C92.8315 94.3693 92.6466 94.0549 92.4457 94.0443C92.3357 94.0385 92.2208 94.1239 92.043 94.2561L92.0081 94.2821C82.0232 100.244 73.1058 107.835 65.6251 116.739C64.1441 118.539 64.1561 118.584 64.4551 119.097C68.7811 126.544 79.2941 134.756 86.7361 138.969C87.2791 139.281 87.4471 139.278 92.8491 132.714C99.0424 125.19 104.13 116.82 107.957 107.858C107.956 107.396 107.78 107.388 107.551 107.379C107.442 107.374 107.321 107.369 107.2 107.314ZM90.0281 120.633C86.8351 120.201 84.9931 119.408 83.1791 116.723C78.7271 110.123 85.9911 101.269 93.7101 104.806C101.143 108.212 99.7221 120.159 90.0281 120.633ZM83.897 140.431C84.997 141.045 85.2172 141.168 84.8871 141.533L84.7987 141.629C83.9235 142.58 80.4502 146.356 79.1391 146.725C73.8151 145.849 63.6441 137.06 60.1801 132.166C59.0854 130.815 58.2304 129.285 57.6521 127.645L57.6029 127.531L57.5599 127.431C57.3071 126.846 57.2555 126.727 57.4021 126.529C58.7581 124.705 61.6501 121.164 61.6731 121.142C62.197 120.534 62.5055 120.99 63.4209 122.343C64.8454 124.447 67.7395 128.724 75.2011 134.542C79.8482 138.168 82.5411 139.673 83.897 140.431ZM113.128 87.979C113.117 87.7704 113.062 87.5665 112.965 87.3813C112.868 87.1961 112.733 87.034 112.568 86.906C112.403 86.778 112.212 86.6872 112.008 86.6397C111.805 86.5923 111.594 86.5893 111.389 86.6311C106.196 87.2311 102.401 88.3391 95.0891 92.104C94.6891 92.3111 94.7101 92.4621 95.4071 93.5041C98.3821 97.9441 101.293 101.688 107.437 104.36C107.725 104.485 107.976 104.596 108.195 104.692C109.599 105.309 109.701 105.354 109.837 105.11C112.478 100.247 113.48 91.0291 113.128 87.979ZM85.8615 117.723C84.9814 117.022 84.2864 116.116 83.8371 115.085C83.2965 113.821 83.1455 112.424 83.4034 111.073C83.6613 109.722 84.3164 108.479 85.2848 107.503C86.2532 106.526 87.4909 105.861 88.8395 105.592C90.1881 105.323 91.5863 105.463 92.8551 105.993C93.8902 106.434 94.8015 107.122 95.5096 107.996C96.2177 108.87 96.7009 109.904 96.9172 111.008C97.1334 112.112 97.076 113.253 96.7501 114.329C96.4241 115.406 95.8395 116.387 95.0472 117.186C94.2549 117.984 93.2791 118.577 92.2051 118.912C91.131 119.247 89.9913 119.313 88.8855 119.106C87.7797 118.899 86.7415 118.424 85.8615 117.723ZM95.1233 113.881C95.4632 112.96 95.5407 111.962 95.3471 111C95.1813 110.19 94.8286 109.429 94.3171 108.779C93.8056 108.129 93.1494 107.608 92.4007 107.256C91.6521 106.904 90.8317 106.732 90.0049 106.754C89.178 106.775 88.3676 106.989 87.6381 107.379C86.7738 107.845 86.0558 108.541 85.5641 109.39C85.0724 110.24 84.8262 111.21 84.8532 112.191C84.8801 113.172 85.1791 114.127 85.7167 114.948C86.2543 115.769 87.0094 116.425 87.8979 116.843C88.7864 117.26 89.7734 117.422 90.7488 117.312C91.7241 117.201 92.6496 116.821 93.422 116.216C94.1944 115.61 94.7834 114.801 95.1233 113.881ZM92.7791 137.487C92.306 137.395 91.6647 138.203 90.7023 139.416C90.1044 140.169 89.3826 141.078 88.5001 142.025C88.4701 142.057 88.4782 142.048 88.4882 142.037C88.5328 141.987 88.6152 141.896 85.5131 145.225C85.1597 145.603 84.8828 145.872 84.6193 146.128C84.1784 146.557 83.7746 146.948 83.1131 147.752C82.6297 148.328 82.8586 148.944 83.1518 149.734C83.288 150.101 83.4381 150.505 83.5371 150.96C83.6777 151.603 83.7771 152.046 83.8476 152.36C83.9765 152.934 84.0083 153.075 84.0172 153.218C84.0201 153.265 84.0205 153.311 84.0212 153.374C84.0233 153.59 84.0274 153.992 84.1431 155.222C84.1649 156.725 83.8422 157.509 83.6379 158.006C83.4496 158.463 83.362 158.676 83.7381 158.981C84.2157 159.371 84.2601 159.336 86.9337 157.248L87.0261 157.176C95.1921 150.782 94.5141 137.823 92.7791 137.487ZM89.3331 110.274C90.2826 109.788 91.2839 109.412 92.3181 109.151C92.5011 109.116 92.6243 109.059 92.722 109.013C92.9216 108.919 93.0141 108.876 93.2901 109.181C93.8561 109.831 94.6991 111.134 93.8811 111.392C90.9512 112.318 90.9519 112.319 91.2051 112.712C91.2763 112.822 91.3675 112.964 91.4191 113.166C91.4608 113.319 91.4569 113.48 91.4081 113.631C91.3592 113.781 91.2675 113.914 91.1441 114.013C90.2851 114.572 89.3626 115.028 88.3961 115.369C87.6261 115.564 86.8071 115.341 86.1831 113.621C86.056 113.272 86.2302 113.232 86.7429 113.114C87.1617 113.018 87.8064 112.871 88.6971 112.46C89.7702 111.967 89.5324 111.597 89.2906 111.222C89.1027 110.93 88.9124 110.634 89.3331 110.274Z" fill="#0014A9"/>
<path d="M186.478 25.0558C172.858 6.11877 147.883 2.73777 128.587 13.5668C99.8121 29.7138 99.7501 76.6168 134.632 90.7897C147.641 96.0757 165.556 95.0287 177.487 85.5528C183.981 80.3948 188.379 73.3748 190.953 68.3138C197.269 53.4998 194.115 35.6728 186.478 25.0558ZM193.037 56.0188C192.937 59.9088 189.655 72.0988 180.55 80.8008C157.61 102.724 121.287 92.4697 111.424 64.7458C105.687 48.6188 109.256 25.6228 130.748 13.8378C154.467 0.831775 186.587 12.7318 192.165 41.4158C193.221 46.2074 193.516 51.1356 193.037 56.0188Z" fill="#0014A9"/>
<path d="M155.161 63.7837C152.201 62.7177 149.375 64.8417 147.826 67.2687C144.595 72.3337 145.706 79.5687 151.765 79.2027C153.524 79.2027 156.943 76.3317 158.03 72.2267C159.093 68.2157 157.492 64.6227 155.161 63.7837ZM157.631 70.1247C157.278 74.4247 154.131 77.8387 152.167 78.2247C150.894 78.4737 154.067 75.9747 154.583 70.7447C155.204 64.3877 151.249 65.3127 152.059 64.5767C152.547 64.2956 153.116 64.1897 153.672 64.2767C155.362 63.9107 157.938 66.3997 157.631 70.1247Z" fill="#0014A9"/>
<path d="M130.246 52.3384C127.646 49.4694 122.685 49.8524 120.183 56.2514C117.892 62.1094 123.263 70.3514 129.748 63.2364C131.982 60.7864 132.62 54.9624 130.246 52.3384ZM128.505 52.0864C127.707 52.3642 126.999 52.8524 126.456 53.4994C125.407 54.6534 124.677 56.0605 124.337 57.5824C124.285 57.9574 124.037 58.2824 124.011 58.6694C123.937 59.5824 123.644 61.9494 124.291 63.1694C124.591 63.7344 124.784 64.3824 125.401 64.7264C125.625 64.8514 125.57 65.1144 125.401 65.1094C124.651 65.2022 123.89 65.0863 123.201 64.7744C119.964 62.8564 120.094 57.3004 122.089 54.5294C125.032 49.7394 129.163 51.6764 128.505 52.0864Z" fill="#0014A9"/>
<path d="M148.727 28.3732C146.713 27.0972 142.127 27.5842 139.64 28.4512C133.707 30.5172 130.601 35.0692 134.149 37.6332C137.169 39.8162 144.384 37.8072 147.498 35.6822C151.112 33.2152 151.16 29.9152 148.727 28.3732ZM134.649 35.5272C134.249 36.1502 134.396 36.5062 134.013 36.0762C133.288 35.2612 133.635 34.0222 134.746 32.7202C138.553 28.2592 146.235 27.6952 148.401 29.1842C148.963 29.5824 149.349 30.1821 149.48 30.8582C149.61 31.5343 149.474 32.2347 149.101 32.8132C148.943 33.0492 148.22 32.4442 147.849 32.1422C145.222 29.9992 136.742 32.2632 134.649 35.5272Z" fill="#0014A9"/>
<path d="M166.58 49.5183C169.065 48.8833 169.243 46.4363 169.428 43.8853C169.167 41.2543 168.949 38.7553 166.76 37.2263C162.466 34.2273 160.441 48.4093 166.58 49.5183ZM165.22 37.7753C166.192 37.3703 167.36 38.5213 167.697 39.4153C169.847 45.1153 167.881 48.9153 166.426 48.6993C166.157 48.6583 166.085 48.5583 166.214 48.3173C167.174 46.5173 167.468 42.3863 165.873 39.2283C165.51 38.5103 164.93 38.4363 164.964 37.9573C164.962 37.7773 165.114 37.8193 165.22 37.7753Z" fill="#0014A9"/>
<path d="M125.151 27.5558C125.33 25.6558 124.016 24.8028 122.579 25.1848C119.479 26.0088 116.41 31.0588 116.723 33.8848C117.263 38.7588 123.746 35.0538 125.151 27.5558ZM118.92 33.5428C118.757 34.0556 118.697 34.5957 118.744 35.1318C118.683 35.4878 117.932 35.2318 117.685 34.6168C116.364 31.3518 122.297 24.2288 124.017 26.1448C125.232 27.4968 122.561 25.6808 119.361 32.2058C119.212 32.5098 119.042 33.2318 118.92 33.5428Z" fill="#0014A9"/>
<path d="M175.881 62.2515C174.466 64.3025 173.915 67.3395 175.834 68.5275C178.144 69.9565 182.026 66.9495 182.319 62.9275C182.586 59.2725 178.376 58.6345 175.881 62.2515ZM180.33 66.1115C178.698 68.0495 177.237 68.2495 177.014 68.1715C176.569 68.0145 176.644 67.7315 176.914 67.6055C177.787 67.0354 178.496 66.2483 178.973 65.3215C181.106 61.8005 179.185 60.7015 180.187 60.6645C181.531 60.6155 182.2 63.8995 180.33 66.1115Z" fill="#0014A9"/>
<path d="M186.4 40.6783C184.416 41.0783 182.153 45.3093 183.379 48.8963C185.012 53.6753 189.762 50.0863 189.487 44.8573C189.309 41.3993 187.623 40.4303 186.4 40.6783ZM185.372 50.2993C184.331 49.9313 185.587 49.3553 185.921 48.0993C185.961 47.9493 187.295 44.4483 185.94 42.4993C185.521 41.8993 185.493 41.9343 185.94 41.6523C186.175 41.5432 186.431 41.488 186.69 41.4907C186.948 41.4934 187.203 41.5539 187.436 41.6678C187.668 41.7817 187.872 41.9461 188.032 42.1489C188.193 42.3518 188.306 42.588 188.364 42.8403C189.639 47.7873 186.9 50.8333 185.372 50.2993Z" fill="#0014A9"/>
<path d="M165.055 18.0171C162.372 19.7171 170.049 26.1601 172.966 24.0421C174.331 23.0511 172.587 20.8511 170.977 19.5831C169.574 18.4771 166.684 16.9851 165.055 18.0171ZM172.218 23.5461C171.818 23.7761 171.635 23.8331 170.928 22.8541C169.58 21.3581 167.889 20.2116 166 19.5131C165.65 19.4291 165.181 19.5571 165.3 19.0891C165.456 18.4681 165.767 18.5331 166.417 18.5171C169.314 18.4461 173.85 22.6191 172.218 23.5461Z" fill="#0014A9"/>
<path d="M163.142 81.3126C162.975 81.5743 162.879 81.8744 162.861 82.1841C162.844 82.4938 162.906 82.8029 163.042 83.0815C163.825 84.2335 166.131 84.3165 167.894 84.0455C169.148 83.8535 169.394 83.5565 169.663 82.8895C171.015 79.6045 164.917 79.2406 163.142 81.3126ZM168.987 81.7726C168.82 83.8216 168.121 81.1225 164.64 82.2215C164.428 82.2885 164.07 82.5365 163.84 82.5845C163.091 82.7375 163.84 80.0845 167.848 80.8915C168.178 80.9585 169.048 81.4396 168.987 81.7726Z" fill="#0014A9"/>
<path d="M129.909 76.9864C128.92 78.4394 132.327 83.0764 134.782 82.6944C138.589 82.0994 132.1 73.7684 129.909 76.9864ZM133.88 81.5354C133.724 81.2225 133.548 80.9203 133.352 80.6305C132.886 79.8466 132.294 79.1451 131.6 78.5544C131.076 78.0484 130.588 78.1984 130.619 77.5984C130.635 77.2764 130.693 77.2074 131.032 77.1984C132.91 77.1374 134.347 79.2644 135.151 81.1684C135.461 81.8994 134.173 82.3674 133.88 81.5354Z" fill="#0014A9"/>
<path d="M149.148 15.7926C155.974 16.2826 153.005 9.10053 147.123 12.6806C145.423 13.7156 145.52 15.5326 149.148 15.7926ZM152.091 13.0926C152.46 13.4166 152.259 13.7816 151.947 14.0926C151.372 14.6656 151.578 14.0666 150.477 13.9656C147.89 13.7276 148.369 15.0036 147.706 14.7656C144.733 13.6996 150.334 11.5426 152.091 13.0896V13.0926Z" fill="#0014A9"/>
<path d="M150.214 47.8324C148.22 48.7534 148.171 49.4644 147.858 50.5254C147.684 51.1144 148.068 51.5863 148.464 52.0083C148.734 52.2953 149.153 52.3023 149.706 52.3983C150.293 52.4129 150.876 52.2969 151.413 52.0588C151.95 51.8207 152.428 51.4663 152.811 51.0213C153.536 50.4473 154.001 49.0094 153.447 48.3534C153.044 47.918 152.506 47.6303 151.92 47.5358C151.334 47.4414 150.734 47.5458 150.214 47.8324ZM152.765 49.1714C152.765 50.4234 151.737 49.1493 150.214 50.2453C149.369 50.8543 149.254 51.4454 148.989 51.3044C148.489 51.0464 148.489 49.5653 150.214 48.6673C151.763 47.8603 152.934 48.4674 152.765 49.1714Z" fill="#0014A9"/>
</svg>
